<?xml version="1.0" encoding="UTF-8"?><svg xmlns="http://www.w3.org/2000/svg" xmlns:xlink="http://www.w3.org/1999/xlink" contentScriptType="text/ecmascript" width="187.5" zoomAndPan="magnify" contentStyleType="text/css" viewBox="0 0 187.5 149.999998" height="149.999998" preserveAspectRatio="xMidYMid meet" version="1.0"><defs><clipPath id="clip-0"><path d="M 1.289062 7.472656 L 183 7.472656 L 183 140 L 1.289062 140 Z M 1.289062 7.472656 " clip-rule="nonzero"/></clipPath></defs><g clip-path="url(#clip-0)"><path fill="rgb(6.269836%, 5.879211%, 5.099487%)" d="M 61.949219 61.972656 L 171.507812 61.972656 C 171.894531 61.972656 172.230469 62.246094 172.3125 62.628906 C 174.867188 75.421875 172.921875 88.695312 166.835938 100.214844 C 166.707031 100.488281 166.417969 100.648438 166.109375 100.648438 L 67.359375 100.648438 C 67.054688 100.648438 66.765625 100.488281 66.621094 100.214844 C 60.535156 88.695312 58.589844 75.421875 61.144531 62.628906 C 61.222656 62.246094 61.5625 61.972656 61.949219 61.972656 Z M 118.054688 7.898438 C 91.871094 7.386719 67.859375 22.457031 56.953125 46.289062 C 56.757812 46.707031 56.261719 46.882812 55.859375 46.707031 C 55.667969 46.625 55.523438 46.480469 55.441406 46.304688 L 55.441406 46.320312 C 51.105469 37.433594 42.542969 31.390625 32.730469 30.265625 C 32.28125 30.203125 31.878906 30.539062 31.832031 30.992188 C 31.816406 31.085938 31.816406 31.183594 31.847656 31.28125 C 33.644531 38.863281 37.582031 45.757812 43.1875 51.15625 C 43.523438 51.476562 43.539062 51.992188 43.21875 52.332031 C 43.027344 52.539062 42.738281 52.636719 42.449219 52.570312 C 28.554688 49.519531 14.035156 52.058594 1.988281 59.625 C 1.601562 59.867188 1.488281 60.378906 1.730469 60.765625 C 1.792969 60.878906 1.890625 60.976562 1.988281 61.039062 C 16.425781 70.117188 34.289062 71.871094 50.222656 65.78125 C 50.640625 65.601562 51.121094 65.828125 51.296875 66.246094 C 51.347656 66.375 51.363281 66.503906 51.347656 66.648438 C 47.441406 102.785156 73.558594 135.230469 109.683594 139.132812 C 145.808594 143.039062 178.253906 116.894531 182.140625 80.773438 C 186.042969 44.632812 159.925781 12.175781 123.804688 8.269531 C 121.890625 8.058594 119.980469 7.949219 118.070312 7.914062 L 118.054688 7.898438 " fill-opacity="1" fill-rule="nonzero"/></g><path fill="rgb(6.269836%, 5.879211%, 5.099487%)" d="M 100.207031 81.300781 C 100.238281 76.914062 96.722656 73.332031 92.320312 73.300781 C 87.9375 73.269531 84.355469 76.804688 84.320312 81.191406 C 84.320312 81.238281 84.320312 81.269531 84.320312 81.300781 C 84.289062 85.6875 87.824219 89.273438 92.207031 89.304688 C 96.578125 89.351562 100.160156 85.816406 100.207031 81.429688 C 100.207031 81.398438 100.207031 81.351562 100.207031 81.300781 " fill-opacity="1" fill-rule="nonzero"/><path fill="rgb(6.269836%, 5.879211%, 5.099487%)" d="M 149.132812 81.300781 C 149.164062 76.914062 145.632812 73.332031 141.246094 73.316406 C 136.863281 73.269531 133.28125 76.804688 133.246094 81.191406 C 133.246094 81.238281 133.246094 81.269531 133.246094 81.300781 C 133.214844 85.6875 136.734375 89.273438 141.117188 89.304688 C 145.503906 89.351562 149.085938 85.816406 149.132812 81.429688 C 149.132812 81.398438 149.132812 81.351562 149.132812 81.300781 " fill-opacity="1" fill-rule="nonzero"/></svg>