<svg width="88" height="88" viewBox="0 0 88 88" fill="none" xmlns="http://www.w3.org/2000/svg">
<path d="M44 59.5C52.5604 59.5 59.5 52.5604 59.5 44C59.5 35.4396 52.5604 28.5 44 28.5C35.4396 28.5 28.5 35.4396 28.5 44C28.5 52.5604 35.4396 59.5 44 59.5Z" fill="#FBBF24" fill-opacity="0.25"/>
<path d="M44 88C68.3005 88 88 68.3005 88 44C88 19.6995 68.3005 0 44 0C19.6995 0 0 19.6995 0 44C0 68.3005 19.6995 88 44 88Z" fill="#FBBF24" fill-opacity="0.25"/>
<path d="M44 81.5C64.7107 81.5 81.5 64.7107 81.5 44C81.5 23.2893 64.7107 6.5 44 6.5C23.2893 6.5 6.5 23.2893 6.5 44C6.5 64.7107 23.2893 81.5 44 81.5Z" fill="#FBBF24" fill-opacity="0.48"/>
<path d="M44 73.5C60.2924 73.5 73.5 60.2924 73.5 44C73.5 27.7076 60.2924 14.5 44 14.5C27.7076 14.5 14.5 27.7076 14.5 44C14.5 60.2924 27.7076 73.5 44 73.5Z" fill="#FBBF24" fill-opacity="0.68"/>
<path d="M44 66.5C56.4264 66.5 66.5 56.4264 66.5 44C66.5 31.5736 56.4264 21.5 44 21.5C31.5736 21.5 21.5 31.5736 21.5 44C21.5 56.4264 31.5736 66.5 44 66.5Z" fill="#FBBF24" fill-opacity="0.88"/>
</svg>
